<svg xmlns="http://www.w3.org/2000/svg" width="25" height="25" viewBox="0 0 25 25">
  <g id="그룹_5581" data-name="그룹 5581" transform="translate(238.796 -150.631)">
    <g id="그룹_4605" data-name="그룹 4605">
      <rect id="사각형_1597" data-name="사각형 1597" width="25" height="25" transform="translate(-238.796 150.631)" fill="#fff"/>
    </g>
    <g id="그룹_4608" data-name="그룹 4608">
      <g id="그룹_4606" data-name="그룹 4606">
        <path id="패스_727" data-name="패스 727" d="M-227.8,169.42a8.094,8.094,0,0,1-8.085-8.085,8.094,8.094,0,0,1,8.085-8.085,8.093,8.093,0,0,1,8.084,8.085A8.093,8.093,0,0,1-227.8,169.42Zm0-15.17a7.093,7.093,0,0,0-7.085,7.085,7.093,7.093,0,0,0,7.085,7.085,7.092,7.092,0,0,0,7.084-7.085A7.093,7.093,0,0,0-227.8,154.25Z"/>
      </g>
      <g id="그룹_4607" data-name="그룹 4607">
        <path id="패스_728" data-name="패스 728" d="M-216.916,172.723a.5.5,0,0,1-.353-.146l-5.516-5.516a.5.5,0,0,1,0-.707.5.5,0,0,1,.707,0l5.516,5.516a.5.5,0,0,1,0,.707A.5.5,0,0,1-216.916,172.723Z"/>
      </g>
    </g>
  </g>
</svg>
